<svg xmlns="http://www.w3.org/2000/svg" width="1200" height="300" viewBox="0 0 1200 300">
  <!-- Background gradient -->
  <linearGradient id="headerGradient" x1="0%" y1="0%" x2="100%" y2="100%">
    <stop offset="0%" stop-color="#3730A3" stop-opacity="0.8" />
    <stop offset="100%" stop-color="#3730A3" stop-opacity="0.4" />
  </linearGradient>
  
  <rect width="1200" height="300" fill="url(#headerGradient)" />
  
  <!-- Musical Staff Lines -->
  <g opacity="0.15">
    <line x1="0" y1="50" x2="1200" y2="50" stroke="white" stroke-width="1.5" />
    <line x1="0" y1="80" x2="1200" y2="80" stroke="white" stroke-width="1.5" />
    <line x1="0" y1="110" x2="1200" y2="110" stroke="white" stroke-width="1.5" />
    <line x1="0" y1="140" x2="1200" y2="140" stroke="white" stroke-width="1.5" />
    <line x1="0" y1="170" x2="1200" y2="170" stroke="white" stroke-width="1.5" />
  </g>
  
  <!-- Treble Clef -->
  <g opacity="0.1" transform="scale(0.5)">
    <g>
		<path style="fill:#fff;" d="M118.215,84.333c-1.077,0-2.162,0.118-3.242,0.175c-0.1-2.151-0.218-4.524-0.351-7.09l-0.054-0.902
			c-0.107-1.922-0.208-3.98-0.308-6.077c16.044-1.857,35.853-4.216,45.172-14.705c4.574-5.143,6.263-12.701,4.767-21.28
			c-2.212-12.762-10.901-25.571-21.158-31.154c-10.311-4.985-18.886-4.305-24.837,1.915c-10.318,10.805-10.976,36.093-10.017,60.067
			c-2.92,0.358-5.479,0.719-7.852,1.145C69.257,73.092,51.749,83.023,45.26,97.682c-5.082,11.481-2.834,25.61,6.671,41.973
			c11.907,21.931,34.171,36.29,57.161,37.123c-5.2,23.47-13.922,24.741-37.707,24.741h-0.812v5.826h0.812
			c24.483,0,37.549-1.356,43.712-30.656v-0.011c20.861-1.539,44.281-16.295,45.076-53.826c0.283-11.313-3.471-20.897-10.851-27.693
			C141.854,88.27,130.516,84.333,118.215,84.333z M122.424,9.242c2.215-2.316,4.842-3.436,8.035-3.436
			c2.885,0,6.234,0.902,9.917,2.677c8.575,4.681,16.18,16.019,18.084,26.974c1.188,6.789-0.014,12.615-3.375,16.398
			c-7.77,8.743-26.025,11.001-41.085,12.751C113.237,45.145,113.37,18.715,122.424,9.242z M108.452,71.124
			c0.089,1.915,0.193,3.797,0.286,5.569l0.025,0.494c0.15,2.885,0.29,5.544,0.39,7.909c-14.172,2.197-25.718,9.198-30.449,18.76
			c-2.827,5.723-4.624,15.128,2.859,27.478l0.419,0.684l4.985-3.028l-0.419-0.694c-4.899-8.085-5.776-15.439-2.609-21.852
			c3.811-7.709,13.385-13.464,25.36-15.479c0.018,5.794,0.251,13.535,0.519,22.493c0.576,19.24,1.278,42.9,0.043,57.516
			c-21.126-0.487-41.762-13.764-52.842-34.174c-8.546-14.713-10.701-27.078-6.42-36.762c5.594-12.626,22.25-21.749,50.877-27.886
			C103.528,71.775,105.822,71.449,108.452,71.124z M115.717,170.795c1.195-15.006,0.505-38.408-0.075-57.512
			c-0.276-9.19-0.512-17.136-0.512-22.887c0-0.014,0-0.043,0-0.068c1.034-0.057,2.072-0.168,3.099-0.168
			c10.837,0,20.729,3.378,27.131,9.28c6.202,5.701,9.223,13.539,8.979,23.28C153.642,155.688,134.513,169.034,115.717,170.795z"/>
	</g>
  </g>
  
  <!-- Notes Sequence -->
  <g opacity="0.2">
    <!-- Flowing series of musical notes -->
    <path d="M200,30 Q300,200 400,80 Q500,0 600,120 Q700,230 800,90 Q900,0 1000,150 Q1100,250 1200,100" 
          stroke="white" fill="none" stroke-width="2" stroke-dasharray="5,10" />
    
    <!-- Notes along the flowing path -->
    <g transform="translate(200,30) rotate(-30)">
      <ellipse cx="0" cy="0" rx="12" ry="8" fill="white" />
      <line x1="12" y1="0" x2="12" y2="-40" stroke="white" stroke-width="2" />
    </g>
    
    <g transform="translate(300,200) rotate(40)">
      <ellipse cx="0" cy="0" rx="12" ry="8" fill="white" />
      <line x1="12" y1="0" x2="12" y2="-40" stroke="white" stroke-width="2" />
      <path d="M12,-40 Q22,-30 32,-20" stroke="white" stroke-width="2" fill="none" />
    </g>
    
    <g transform="translate(400,80) rotate(-20)">
      <ellipse cx="0" cy="0" rx="12" ry="8" fill="white" />
      <line x1="12" y1="0" x2="12" y2="-40" stroke="white" stroke-width="2" />
    </g>
    
    <g transform="translate(500,0) rotate(15)">
      <ellipse cx="0" cy="0" rx="12" ry="8" stroke="white" stroke-width="2" fill="none" />
      <line x1="12" y1="0" x2="12" y2="-40" stroke="white" stroke-width="2" />
    </g>
    
    <g transform="translate(600,120) rotate(-10)">
      <ellipse cx="0" cy="0" rx="12" ry="8" fill="white" />
      <line x1="12" y1="0" x2="12" y2="-40" stroke="white" stroke-width="2" />
      <path d="M12,-40 Q22,-30 32,-20" stroke="white" stroke-width="2" fill="none" />
    </g>
    
    <g transform="translate(700,230) rotate(25)">
      <ellipse cx="0" cy="0" rx="12" ry="8" fill="white" />
      <line x1="12" y1="0" x2="12" y2="-40" stroke="white" stroke-width="2" />
    </g>
    
    <g transform="translate(800,90) rotate(-30)">
      <ellipse cx="0" cy="0" rx="12" ry="8" fill="white" />
      <line x1="12" y1="0" x2="12" y2="-40" stroke="white" stroke-width="2" />
      <path d="M12,-40 Q22,-30 32,-20" stroke="white" stroke-width="2" fill="none" />
    </g>
    
    <g transform="translate(900,0) rotate(10)">
      <ellipse cx="0" cy="0" rx="12" ry="8" stroke="white" stroke-width="2" fill="none" />
      <line x1="12" y1="0" x2="12" y2="-40" stroke="white" stroke-width="2" />
    </g>
    
    <g transform="translate(1000,150) rotate(-15)">
      <ellipse cx="0" cy="0" rx="12" ry="8" fill="white" />
      <line x1="12" y1="0" x2="12" y2="-40" stroke="white" stroke-width="2" />
    </g>
    
    <g transform="translate(1100,250) rotate(35)">
      <ellipse cx="0" cy="0" rx="12" ry="8" fill="white" />
      <line x1="12" y1="0" x2="12" y2="-40" stroke="white" stroke-width="2" />
      <path d="M12,-40 Q22,-30 32,-20" stroke="white" stroke-width="2" fill="none" />
    </g>
  </g>
  
  <!-- Decorative Circles -->
  <circle cx="50" cy="250" r="20" fill="white" opacity="0.05" />
  <circle cx="1150" cy="70" r="40" fill="white" opacity="0.05" />
  <circle cx="600" cy="220" r="30" fill="white" opacity="0.05" />
  <circle cx="850" cy="30" r="25" fill="white" opacity="0.05" />
</svg>